<svg xmlns="http://www.w3.org/2000/svg" width="458" height="531" viewBox="0 0 458 531">
  <path d="M 230.00 142.50 L 212.00 140.50 L 193.00 134.50 L 184.50 127.00 L 177.50 111.00 L 176.50 102.00 L 180.50 89.00 L 188.00 79.50 L 200.00 73.50 L 213.00 73.50 L 224.00 79.50 L 230.50 87.00 L 232.50 101.00 L 228.00 109.50 L 219.00 114.50 L 210.00 114.50 L 198.00 104.50 L 194.50 111.00 L 203.00 125.50 L 222.00 131.50 L 237.00 126.50 L 247.50 115.00 L 249.50 100.00 L 245.50 87.00 L 247.00 85.50 L 275.00 91.50 L 291.00 90.50 L 309.00 82.50 L 317.50 73.00 L 315.00 70.50 L 288.00 69.50 L 224.00 55.50 L 207.00 56.50 L 193.00 60.50 L 182.00 66.50 L 169.50 80.00 L 163.50 98.00 L 163.50 110.00 L 167.50 123.00 L 166.00 127.50 L 53.00 96.50 L 39.50 91.00 L 44.00 87.50 L 98.00 74.50 L 109.00 69.50 L 134.00 64.50 L 220.00 39.50 L 234.00 40.50 L 369.00 75.50 L 412.00 84.50 L 418.50 88.00 L 412.00 92.50 L 406.00 92.50 L 230.00 142.50 Z M 305.00 353.50 L 298.00 353.50 L 279.00 346.50 L 265.50 331.00 L 261.50 312.00 L 260.50 178.00 L 254.00 171.50 L 246.00 171.50 L 245.50 164.00 L 251.00 160.50 L 282.00 153.50 L 308.00 144.50 L 313.50 146.00 L 313.50 152.00 L 305.00 155.50 L 299.50 161.00 L 294.50 179.00 L 293.50 283.00 L 295.50 286.00 L 296.50 311.00 L 302.50 328.00 L 313.00 335.50 L 327.00 334.50 L 342.00 325.50 L 353.50 312.00 L 363.50 283.00 L 363.50 259.00 L 365.50 256.00 L 365.50 157.00 L 362.50 147.00 L 358.00 142.50 L 352.00 142.50 L 349.50 135.00 L 352.00 132.50 L 411.00 115.50 L 412.50 124.00 L 402.50 130.00 L 398.50 150.00 L 399.50 263.00 L 397.50 266.00 L 398.50 273.00 L 395.50 289.00 L 389.50 308.00 L 376.50 326.00 L 360.00 340.50 L 338.00 350.50 L 305.00 353.50 Z M 174.00 354.50 L 160.00 354.50 L 137.00 350.50 L 49.50 322.00 L 50.00 316.50 L 67.00 317.50 L 71.50 313.00 L 73.50 306.00 L 72.50 148.00 L 69.50 140.00 L 64.00 134.50 L 48.50 127.00 L 50.00 120.50 L 132.00 142.50 L 157.00 153.50 L 174.50 167.00 L 192.50 194.00 L 196.50 207.00 L 195.50 229.00 L 189.50 241.00 L 178.00 250.50 L 171.50 253.00 L 192.50 273.00 L 200.50 287.00 L 203.50 301.00 L 203.50 326.00 L 196.50 341.00 L 189.00 348.50 L 174.00 354.50 Z M 144.50 234.00 L 154.50 228.00 L 160.50 216.00 L 161.50 201.00 L 158.50 191.00 L 151.50 179.00 L 137.00 163.50 L 124.00 154.50 L 110.00 150.50 L 107.50 153.00 L 108.50 222.00 L 122.00 229.50 L 139.00 234.50 L 144.50 234.00 Z M 153.50 333.00 L 164.50 324.00 L 167.50 318.00 L 169.50 303.00 L 165.50 286.00 L 159.50 274.00 L 143.00 256.50 L 111.00 240.50 L 107.50 247.00 L 107.50 318.00 L 117.00 325.50 L 136.00 332.50 L 153.50 333.00 Z M 50.00 387.50 L 46.50 386.00 L 46.50 376.00 L 49.00 373.50 L 402.00 373.50 L 404.50 385.00 L 50.00 387.50 Z M 225.00 435.50 L 210.00 435.50 L 208.50 433.00 L 210.50 428.00 L 207.00 424.50 L 200.00 424.50 L 197.50 427.00 L 196.50 430.00 L 199.50 433.00 L 198.00 434.50 L 187.50 434.00 L 191.50 430.00 L 207.00 396.50 L 211.50 402.00 L 221.50 428.00 L 226.50 433.00 L 225.00 435.50 Z M 244.00 436.50 L 227.50 433.00 L 229.50 430.00 L 227.50 423.00 L 229.00 421.50 L 238.00 431.50 L 244.00 431.50 L 247.50 428.00 L 230.50 415.00 L 228.50 405.00 L 235.00 397.50 L 244.00 396.50 L 249.00 399.50 L 252.00 396.50 L 254.50 399.00 L 251.00 411.50 L 246.00 402.50 L 241.00 400.50 L 237.50 404.00 L 240.00 409.50 L 249.00 412.50 L 255.50 420.00 L 255.50 428.00 L 250.00 434.50 L 244.00 436.50 Z M 135.00 436.50 L 126.00 436.50 L 117.00 432.50 L 110.00 423.50 L 107.50 426.00 L 108.50 429.00 L 104.00 433.50 L 78.00 435.50 L 75.50 433.00 L 78.50 430.00 L 79.50 410.00 L 78.50 403.00 L 73.50 399.00 L 96.00 397.50 L 103.00 399.50 L 107.50 408.00 L 102.50 415.00 L 108.00 420.50 L 110.50 418.00 L 111.50 409.00 L 118.00 399.50 L 125.00 397.50 L 142.00 399.50 L 148.50 406.00 L 150.50 421.00 L 148.50 427.00 L 141.00 434.50 L 135.00 436.50 Z M 158.00 435.50 L 152.50 434.00 L 156.50 429.00 L 157.50 409.00 L 156.50 403.00 L 151.50 399.00 L 169.00 397.50 L 170.50 399.00 L 166.50 403.00 L 166.50 428.00 L 171.50 433.00 L 158.00 435.50 Z M 332.00 435.50 L 321.00 435.50 L 318.50 433.00 L 321.50 428.00 L 318.00 424.50 L 311.00 424.50 L 307.50 429.00 L 310.50 433.00 L 306.00 435.50 L 280.00 434.50 L 278.50 433.00 L 283.50 430.00 L 282.50 420.00 L 280.00 417.50 L 275.00 417.50 L 272.50 420.00 L 271.50 426.00 L 275.50 433.00 L 274.00 435.50 L 258.00 435.50 L 256.50 434.00 L 261.50 429.00 L 262.50 406.00 L 257.50 399.00 L 275.00 397.50 L 276.50 399.00 L 272.50 403.00 L 271.50 409.00 L 275.00 414.50 L 280.00 414.50 L 283.50 410.00 L 283.50 405.00 L 278.50 399.00 L 296.00 397.50 L 298.50 400.00 L 293.50 403.00 L 293.50 430.00 L 298.00 433.50 L 304.50 427.00 L 308.50 414.00 L 318.00 397.50 L 322.50 403.00 L 332.50 428.00 L 337.50 433.00 L 332.00 435.50 Z M 379.00 435.50 L 362.00 435.50 L 360.50 434.00 L 362.50 430.00 L 356.00 423.50 L 352.50 427.00 L 357.50 433.00 L 356.00 434.50 L 341.00 435.50 L 339.50 433.00 L 343.50 427.00 L 343.50 410.00 L 341.50 407.00 L 343.50 405.00 L 339.50 399.00 L 355.00 397.50 L 356.50 400.00 L 353.50 403.00 L 353.50 409.00 L 356.00 411.50 L 365.50 403.00 L 366.00 397.50 L 377.00 397.50 L 378.50 399.00 L 362.50 413.00 L 372.50 427.00 L 380.50 434.00 L 379.00 435.50 Z M 134.50 431.00 L 139.50 420.00 L 139.50 413.00 L 137.50 406.00 L 133.00 401.50 L 128.00 401.50 L 121.50 414.00 L 122.50 424.00 L 128.00 431.50 L 134.50 431.00 Z M 92.50 413.00 L 96.50 407.00 L 92.00 402.50 L 88.50 411.00 L 92.50 413.00 Z M 204.50 421.00 L 206.50 419.00 L 203.00 415.50 L 200.50 419.00 L 204.50 421.00 Z M 92.50 431.00 L 97.50 424.00 L 91.00 417.50 L 88.50 421.00 L 89.50 429.00 L 92.50 431.00 Z M 181.00 435.50 L 172.50 433.00 L 178.00 430.50 L 185.00 421.50 L 186.50 433.00 L 181.00 435.50 Z M 288.00 491.50 L 271.00 487.50 L 269.00 489.50 L 259.00 489.50 L 249.00 477.50 L 246.50 480.00 L 250.50 487.00 L 249.00 489.50 L 233.00 488.50 L 231.50 487.00 L 235.50 483.00 L 235.50 456.00 L 232.50 453.00 L 257.00 451.50 L 261.00 453.50 L 266.50 461.00 L 265.50 467.00 L 259.50 473.00 L 261.50 477.00 L 269.00 485.50 L 272.50 481.00 L 271.50 477.00 L 274.00 475.50 L 280.00 484.50 L 287.00 486.50 L 290.50 483.00 L 289.50 480.00 L 272.50 467.00 L 271.50 459.00 L 278.00 451.50 L 295.00 451.50 L 297.50 457.00 L 295.00 464.50 L 288.00 455.50 L 283.00 454.50 L 279.50 458.00 L 282.00 462.50 L 293.00 467.50 L 299.50 478.00 L 297.50 484.00 L 288.00 491.50 Z M 78.00 490.50 L 67.00 488.50 L 62.50 484.00 L 62.50 458.00 L 58.50 454.00 L 60.00 451.50 L 75.50 453.00 L 71.50 458.00 L 71.50 477.00 L 72.50 481.00 L 78.00 485.50 L 85.50 482.00 L 87.50 474.00 L 87.50 460.00 L 82.50 453.00 L 94.50 453.00 L 91.50 456.00 L 91.50 479.00 L 89.50 484.00 L 84.00 489.50 L 78.00 490.50 Z M 128.00 489.50 L 107.00 466.50 L 104.50 469.00 L 105.50 484.00 L 109.50 488.00 L 96.50 488.00 L 101.50 481.00 L 101.50 461.00 L 96.50 453.00 L 98.00 451.50 L 109.00 451.50 L 123.00 467.50 L 126.50 464.00 L 126.50 458.00 L 122.50 453.00 L 133.50 453.00 L 129.50 460.00 L 128.00 489.50 Z M 152.00 489.50 L 139.00 489.50 L 136.50 487.00 L 140.50 481.00 L 140.50 457.00 L 136.50 453.00 L 138.00 451.50 L 154.50 453.00 L 151.50 456.00 L 151.50 484.00 L 154.50 487.00 L 152.00 489.50 Z M 176.00 489.50 L 171.50 487.00 L 163.50 466.00 L 155.50 453.00 L 157.00 451.50 L 172.00 451.50 L 174.50 454.00 L 171.50 460.00 L 178.00 471.50 L 185.50 460.00 L 183.50 453.00 L 194.50 453.00 L 176.00 489.50 Z M 202.00 489.50 L 196.50 487.00 L 199.50 484.00 L 200.50 477.00 L 200.50 458.00 L 197.50 453.00 L 225.00 451.50 L 227.50 455.00 L 227.50 460.00 L 225.00 462.50 L 218.00 455.50 L 209.50 459.00 L 209.50 465.00 L 212.00 467.50 L 218.00 461.50 L 219.50 463.00 L 219.50 478.00 L 218.00 479.50 L 212.00 473.50 L 209.50 480.00 L 214.00 486.50 L 221.00 484.50 L 227.00 476.50 L 229.50 479.00 L 229.50 486.00 L 227.00 488.50 L 214.00 487.50 L 202.00 489.50 Z M 317.00 489.50 L 304.00 489.50 L 301.50 487.00 L 304.50 484.00 L 305.50 478.00 L 305.50 457.00 L 301.50 453.00 L 303.00 451.50 L 319.50 453.00 L 315.50 457.00 L 315.50 484.00 L 318.50 487.00 L 317.00 489.50 Z M 372.00 489.50 L 365.50 487.00 L 371.50 483.00 L 371.50 478.00 L 365.50 464.00 L 358.00 454.50 L 355.00 462.50 L 349.00 456.50 L 343.50 459.00 L 343.50 483.00 L 347.50 488.00 L 331.00 489.50 L 329.50 487.00 L 333.50 483.00 L 334.50 476.00 L 333.50 459.00 L 329.00 456.50 L 324.00 462.50 L 319.50 455.00 L 323.00 451.50 L 373.00 451.50 L 375.50 454.00 L 373.50 456.00 L 374.50 460.00 L 380.00 467.50 L 386.50 457.00 L 384.50 453.00 L 394.00 451.50 L 395.50 454.00 L 382.50 473.00 L 382.50 484.00 L 385.50 487.00 L 372.00 489.50 Z M 250.50 469.00 L 254.50 466.00 L 254.50 459.00 L 252.00 456.50 L 246.50 460.00 L 247.50 467.00 L 250.50 469.00 Z" fill="#DABC7C" fill-rule="evenodd"/>
</svg>
